<svg width="24" height="24" viewBox="0 0 24 24" fill="none" xmlns="http://www.w3.org/2000/svg">
<path d="M18.0601 8.71143C17.672 8.71143 17.3809 9.02018 17.3809 9.39069C17.3809 9.75238 17.672 10.07 18.0601 10.07C18.4306 10.07 18.7394 9.77002 18.7394 9.39069C18.7394 9.01136 18.4306 8.71143 18.0601 8.71143Z" fill="#020202"/>
<path d="M4.05306 6.4696C3.7002 6.4696 3.43555 6.7519 3.43555 7.0783C3.43555 7.4047 3.7002 7.68699 4.05306 7.68699C4.38828 7.68699 4.66175 7.41352 4.66175 7.0783C4.66175 6.74308 4.38828 6.4696 4.05306 6.4696Z" fill="#020202"/>
<path d="M13.0527 14.6514C10.1309 14.0634 7.89269 13.1868 7.74902 13.1328H7.75C6.89076 12.8027 6.06017 12.7031 5.26855 12.8408C4.47716 12.9785 3.73371 13.3515 3.0459 13.9531C2.28713 14.6125 1.79224 15.3875 1.55078 15.7988L1.50488 15.876L1.55176 15.9531C2.48431 17.4921 3.81642 18.3171 5.52051 18.3809H5.52148C6.22296 18.4034 6.86184 18.2927 7.3252 18.1758C7.55698 18.1173 7.7457 18.0563 7.87793 18.0098C7.94406 17.9865 7.99671 17.9668 8.0332 17.9521C8.05133 17.9449 8.06635 17.9383 8.07715 17.9336L8.0918 17.9268C8.36039 17.8074 8.66806 17.9387 8.78223 18.1943L8.81934 18.3115C9.11327 19.8547 8.9489 21.0276 8.3584 21.8398L8.23438 21.9971C7.44964 22.9151 6.31762 22.959 6.14355 22.959C6.06592 22.959 5.99646 22.9436 5.93066 22.915L5.86621 22.8818C5.77052 22.8243 4.66077 22.1466 3.44629 20.9658C2.22227 19.7757 0.903112 18.0854 0.396484 16.0156C-0.155738 13.7577 0.188306 11.2142 1.75293 8.85547L2.08301 8.38672C2.27354 8.12814 2.6503 8.10457 2.87891 8.33301C3.06388 8.51798 3.08577 8.8051 2.92676 9.01953L2.92578 9.02051C1.58124 10.8493 1.2297 12.6368 1.2207 13.96L1.21777 14.3799L1.48633 14.0566C2.43981 12.9081 3.5259 12.2026 4.6582 11.8975C5.79046 11.5925 6.9797 11.6848 8.14355 12.1504C8.19863 12.1724 10.4373 13.048 13.3037 13.6143L13.584 13.6689L13.4707 13.4072C12.799 11.85 12.505 10.2992 12.7041 8.88281C12.9027 7.4702 13.593 6.1818 14.9082 5.14258L15.1436 4.95605L14.8535 4.87988C13.5992 4.5484 12.2501 4.46844 10.9404 4.56641C9.98237 4.63651 8.88474 4.82261 7.93359 5.13867L7.53516 5.28223C7.09958 5.45464 6.68419 5.68068 6.19336 6.00195L6.19238 6.00293C6.16947 6.01818 6.14743 6.03063 6.11914 6.04785L6.04004 6.10156C5.83642 6.24409 5.55509 6.21818 5.37598 6.03906L5.375 6.03711L5.29785 5.94336C5.14957 5.71084 5.20891 5.39061 5.4502 5.22754C5.50293 5.19238 5.55566 5.15723 5.6084 5.12207C6.54577 4.50591 7.35848 4.13471 8.70703 3.83887L8.9043 3.7959L8.80664 3.61914C8.40098 2.89087 7.69696 2.06581 6.05273 1.69336H6.0498C5.53558 1.59051 5.4654 0.86146 5.99023 0.674805C8.20335 -0.0917399 10.4411 -0.108122 12.3018 1.2207C13.3513 1.96917 13.9911 2.96148 14.3379 3.6377L14.3711 3.70215L14.4424 3.71582C19.4692 4.68819 22.1714 8.53821 22.9502 13.6396V13.6416C22.9701 13.7612 22.9449 13.8928 22.873 14.0156C22.7795 14.169 22.6626 14.216 22.416 14.3164L22.4131 14.3174C19.6164 15.5159 16.0635 15.25 13.0527 14.6514ZM3.46582 19.0088L3.29395 19.2441C4.45376 20.627 5.77292 21.5629 6.23828 21.8672L6.28516 21.8984L6.3418 21.8896C6.59494 21.8521 7.08834 21.729 7.44922 21.2998L7.4502 21.2988C7.82114 20.8497 7.96138 20.1591 7.89844 19.3047L7.88477 19.123L7.70996 19.1709C6.30522 19.5524 4.80495 19.5582 3.46582 19.0088ZM16.3086 5.45996C15.0394 6.21607 14.216 7.19742 13.877 8.39746C13.5807 9.44135 13.6754 10.5242 13.9141 11.4766C14.1529 12.4297 14.5383 13.2623 14.833 13.8115L14.8691 13.8789L14.9443 13.8887C17.1137 14.1897 19.6501 14.2471 21.7324 13.4482L21.8486 13.4033L21.8262 13.2803C21.186 9.88382 19.5959 6.91903 16.4482 5.45312L16.377 5.41992L16.3086 5.45996ZM8.35449 1.22266L7.93457 1.25684L8.28125 1.49609C9.21079 2.13568 9.65576 2.9369 9.93359 3.51855L9.98047 3.61719L10.0889 3.60352C10.8222 3.5075 11.7477 3.44577 12.7598 3.50684L13.0781 3.52637L12.8896 3.26855C12.1006 2.18939 10.6874 1.0321 8.35449 1.22266Z" fill="#020202" stroke="#F5FAFF" stroke-width="0.3"/>
</svg>
