<svg width="70" height="70" viewBox="0 0 70 70" fill="none" xmlns="http://www.w3.org/2000/svg">
<circle cx="35" cy="35" r="35" fill="#F5FAFF"/>
<path d="M46.0364 30.9051C45.3781 30.9051 44.8843 31.4288 44.8843 32.0573C44.8843 32.6708 45.3781 33.2094 46.0364 33.2094C46.6649 33.2094 47.1886 32.7007 47.1886 32.0573C47.1886 31.4138 46.6649 30.9051 46.0364 30.9051Z" fill="#020202"/>
<path d="M22.2776 27.1025C21.6791 27.1025 21.2302 27.5814 21.2302 28.135C21.2302 28.6886 21.6791 29.1675 22.2776 29.1675C22.8462 29.1675 23.3101 28.7036 23.3101 28.135C23.3101 27.5664 22.8462 27.1025 22.2776 27.1025Z" fill="#020202"/>
<path d="M25.5615 17.2715C29.3169 15.9704 33.1144 15.9406 36.2725 18.1963C38.0535 19.4664 39.1382 21.1495 39.7266 22.2969L39.7822 22.4053L39.9014 22.4277C48.4302 24.0775 53.0148 30.6094 54.3359 39.2637L54.3369 39.2666C54.371 39.4713 54.3263 39.6965 54.2031 39.9062C54.0437 40.1665 53.8438 40.2461 53.4268 40.416L53.4229 40.418C48.6777 42.4516 42.6511 42.0008 37.5439 40.9854H37.5449C32.5831 39.987 28.7826 38.4973 28.5449 38.4082H28.5439C27.0882 37.8494 25.6817 37.6799 24.3408 37.9131C22.9991 38.1464 21.7386 38.7795 20.5723 39.7998C19.2854 40.9181 18.4465 42.2323 18.0371 42.9297L17.9619 43.0586L18.0391 43.1855C19.6202 45.7951 21.8785 47.1936 24.7676 47.3018H24.7686C25.9579 47.3401 27.0404 47.1514 27.8262 46.9531C28.2195 46.8538 28.5404 46.7518 28.7646 46.6729C28.8768 46.6334 28.9655 46.6 29.0273 46.5752C29.0581 46.5629 29.0833 46.5519 29.1016 46.5439C29.1104 46.5401 29.1195 46.5368 29.127 46.5332C29.128 46.5327 29.1286 46.5309 29.1299 46.5303C29.6527 46.2998 30.261 46.6261 30.3662 47.1875V47.1885C30.898 49.9806 30.5467 52.0592 29.375 53.4434C28.0429 55.0022 26.1205 55.0761 25.8242 55.0762C25.6922 55.0762 25.5738 55.0505 25.4619 55.002L25.3516 54.9453C25.1914 54.849 23.307 53.6991 21.2451 51.6943C19.1687 49.6754 16.9309 46.8078 16.0713 43.2959C15.1031 39.3372 15.7596 34.8617 18.6455 30.749L18.9326 30.3516C19.2574 29.9107 19.9004 29.8705 20.29 30.2598C20.566 30.5357 20.6283 30.9452 20.458 31.2881L20.3711 31.4307L20.3701 31.4316C18.0898 34.5329 17.4938 37.564 17.4785 39.8076L17.4736 40.5078L17.9209 39.9688C19.5388 38.0199 21.382 36.8225 23.3037 36.3047C25.2253 35.7871 27.2428 35.9444 29.2178 36.7344C29.3044 36.769 33.1045 38.2556 37.9707 39.2168L38.4365 39.3086L38.248 38.8721C37.1085 36.2301 36.6104 33.5988 36.9482 31.1953C37.2853 28.7981 38.4558 26.6111 40.6875 24.8477L41.0801 24.5381L40.5967 24.4102C38.7355 23.9183 36.751 23.7533 34.7959 23.8311L33.96 23.8789C32.1031 24.0148 29.9372 24.4068 28.1865 25.0918L28.1855 25.0928C27.4472 25.3851 26.7434 25.7678 25.9111 26.3125L25.9102 26.3145C25.871 26.3406 25.8333 26.3613 25.7852 26.3906C25.7444 26.4154 25.697 26.4455 25.6504 26.4814C25.3032 26.7245 24.8248 26.6803 24.5195 26.375L24.5166 26.373L24.4463 26.2959C24.1198 25.8959 24.2061 25.2911 24.6475 24.9932L24.6465 24.9922C24.6909 24.9626 24.7359 24.9339 24.7803 24.9043C24.8247 24.8747 24.8686 24.8441 24.9131 24.8145L24.9141 24.8154C26.5049 23.7696 27.8832 23.1388 30.1719 22.6367L30.5 22.5645L30.3369 22.2705C29.6494 21.0361 28.4576 19.6374 25.6699 19.0059L25.6631 19.0049L25.5078 18.96C24.7765 18.6781 24.7246 17.5705 25.5615 17.2715ZM21.2803 48.377L20.9941 48.7686C22.9608 51.1133 25.197 52.6997 25.9863 53.2158L26.0654 53.2686L26.1602 53.2539C26.5892 53.1903 27.4242 52.9814 28.0352 52.2549L28.0371 52.2539C28.6654 51.4934 28.9036 50.3228 28.7969 48.874L28.7744 48.5713L28.4814 48.6504C26.0981 49.2977 23.5527 49.3092 21.2803 48.377ZM43.0684 25.3945C40.9162 26.6766 39.52 28.3397 38.9453 30.374C37.9438 33.9024 39.5754 37.7069 40.5664 39.5537L40.627 39.665L40.7529 39.6826C44.4323 40.1932 48.7327 40.2901 52.2637 38.9355L52.458 38.8604L52.4199 38.6562C51.3342 32.896 48.639 27.8685 43.3018 25.3828L43.1816 25.3271L43.0684 25.3945ZM37.2627 21.6758C35.9249 19.8462 33.5294 17.8848 29.5742 18.208L28.875 18.2646L29.4531 18.6631C31.0308 19.7488 31.7855 21.1088 32.2568 22.0957L32.335 22.2598L32.5146 22.2363C33.7587 22.0734 35.3289 21.9697 37.0459 22.0732L37.5771 22.1055L37.2627 21.6758Z" fill="#020202" stroke="#F5FAFF" stroke-width="0.5"/>
</svg>
