<svg width="70" height="70" viewBox="0 0 70 70" fill="none" xmlns="http://www.w3.org/2000/svg">
<circle cx="35" cy="35" r="35" fill="#F5FAFF"/>
<path d="M23.6347 19.1916C26.7804 18.6221 34.9037 17.3719 42.4259 18.0423C46.3364 18.3908 49.5232 19.2194 51.902 20.4998C54.8419 22.0823 56.5925 24.3598 57.1192 27.2695L58.2538 33.5358C59.3164 39.4051 55.4062 45.0454 49.5368 46.1082C45.0187 46.9262 42.0481 48.8491 39.1891 50.699C36.4242 52.488 33.828 54.1665 30.0895 54.8434C21.9883 56.3102 14.2033 50.9121 12.7366 42.8108L11.6021 36.5445C10.1353 28.4433 15.5335 20.6583 23.6347 19.1916ZM23.9237 20.7877C16.7023 22.0952 11.8908 29.0342 13.1982 36.2555C14.5056 43.4768 21.4445 48.2875 28.6658 46.9801C32.0896 46.3601 34.5672 44.7558 37.1727 43.07C40.1811 41.1235 43.2786 39.1201 48.1131 38.2449C48.3945 38.1939 48.6761 38.1292 48.9506 38.0525C49.3815 37.9321 49.8303 38.1845 49.9508 38.6158C50.0711 39.047 49.8186 39.4944 49.3873 39.615C49.0644 39.7051 48.7329 39.7811 48.4021 39.841C43.8841 40.659 40.9134 42.5819 38.0544 44.4317C35.2895 46.2207 32.6933 47.8993 28.9548 48.5762C23.4092 49.5802 18.0119 47.3675 14.6879 43.2723L14.5132 43.3595C16.1857 50.1108 22.8623 54.5035 29.8005 53.2473C33.2243 52.6274 35.7019 51.023 38.3074 49.3372C41.3158 47.3907 44.4133 45.3874 49.2478 44.5121C54.2373 43.6086 57.562 38.8143 56.6586 33.8246L56.5365 33.15L56.4052 33.4556C56.0781 34.2176 55.6625 34.9456 55.1629 35.6217C54.8967 35.9818 54.3888 36.0584 54.0286 35.7924C53.6685 35.5263 53.5921 35.0183 53.858 34.6581C55.364 32.6201 55.9719 30.0323 55.5241 27.5583C55.1125 25.2849 53.7826 23.4836 51.5643 22.1648C49.3492 20.8479 46.247 20.0117 42.2818 19.6583C34.9527 19.0052 27.0007 20.2307 23.9237 20.7877Z" fill="#020202" stroke="#F5FAFF" stroke-width="0.2"/>
<path d="M52.124 36.4461C52.4885 36.1865 52.995 36.2708 53.2549 36.6354C53.5124 36.9968 53.4308 37.4979 53.0744 37.7597L53.0735 37.7599C52.9703 37.836 52.8556 37.8847 52.7377 37.9061C52.4446 37.9591 52.133 37.8476 51.9427 37.5935C51.6749 37.2354 51.747 36.7272 52.1044 36.4586L52.1056 36.4594C52.1119 36.4547 52.1186 36.4494 52.1231 36.4463L52.124 36.4461Z" fill="#020202" stroke="#F5FAFF" stroke-width="0.2"/>
<path d="M25.7891 26.1871C28.2499 25.7418 30.5639 27.1963 30.9638 29.4055C31.3637 31.6147 29.7065 33.7873 27.2459 34.233C24.785 34.6786 22.4704 33.225 22.0703 31.0157C21.6703 28.8064 23.3282 26.6326 25.7891 26.1871ZM26.0781 27.7832C24.5223 28.0649 23.4215 29.3737 23.6665 30.7267C23.9116 32.0797 25.4012 32.9186 26.9569 32.6369C28.5123 32.3551 29.6125 31.0474 29.3677 29.6945C29.1228 28.3415 27.6337 27.5018 26.0781 27.7832Z" fill="#020202" stroke="#F5FAFF" stroke-width="0.2"/>
</svg>
