<svg width="70" height="70" viewBox="0 0 70 70" fill="none" xmlns="http://www.w3.org/2000/svg">
<circle cx="35" cy="35" r="35" fill="#F5FAFF"/>
<path d="M22.239 9.54121C24.5814 8.43115 27.32 9.11281 28.895 11.0306L29.0611 11.2329L29.2561 11.0583C30.1558 10.2494 31.3002 9.75558 32.5473 9.66399C34.0237 9.55543 35.4527 10.0272 36.573 10.9939C37.6936 11.9608 38.3699 13.3052 38.478 14.7813C38.5116 15.2411 38.401 16.1656 37.1131 19.4309C36.6475 20.6113 36.1528 21.7801 35.7812 22.6384L35.6701 22.8942L35.937 22.9763C38.4828 23.7596 40.7045 25.566 41.9319 28.156C43.2252 30.8848 45.4597 37.9684 46.8007 44.6351C47.5488 48.3542 47.9252 51.4375 47.923 53.8034C47.9215 55.4016 47.7423 56.6514 47.3933 57.5795C47.0461 58.5027 46.5362 59.0954 45.8725 59.41C45.2087 59.7246 44.4264 59.7443 43.4919 59.4284C42.5526 59.1108 41.4717 58.4581 40.2339 57.4472C38.4014 55.9508 36.2533 53.7071 33.8485 50.7731C29.5379 45.5137 25.4712 39.2983 24.1781 36.5694C22.9507 33.9794 22.9585 31.1165 23.9643 28.65L24.0698 28.3915L23.8015 28.3155C22.9021 28.0596 21.6845 27.7026 20.4756 27.3153C17.5511 26.3785 16.5842 25.8783 16.1641 25.5556L16.0135 25.427C14.9392 24.4086 14.3273 23.0339 14.2885 21.5544C14.2498 20.0753 14.7888 18.6707 15.8075 17.5969C16.6681 16.6896 17.7757 16.1161 18.9716 15.9321L19.2293 15.8921L19.1779 15.6355C18.6909 13.2022 19.8969 10.6513 22.239 9.54121ZM29.5651 24.9984C25.5048 26.9226 23.7672 31.7915 25.6916 35.8522C26.9544 38.5172 30.9261 44.5643 35.1447 49.7114C35.2942 49.8939 35.4408 50.072 35.5864 50.2467L35.7108 50.3952L39.4658 48.6157C39.8837 48.4177 40.3831 48.5955 40.5814 49.0132C40.7795 49.4313 40.6011 49.9311 40.183 50.1292L36.8393 51.7138L37.0612 51.9631C39.4002 54.5987 41.185 56.1705 42.486 57.0413C43.136 57.4763 43.6739 57.7418 44.1056 57.8753C44.529 58.0062 44.8899 58.0213 45.1549 57.8957C45.4521 57.7547 45.6911 57.407 45.8674 56.8999C46.0478 56.3809 46.1801 55.6447 46.2282 54.6465C46.3243 52.6482 46.083 49.5589 45.1592 44.9656C43.8467 38.4413 41.6814 31.5382 40.4185 28.8733C38.4941 24.8128 33.6255 23.0743 29.5651 24.9984ZM19.6229 17.5481C18.6389 17.5985 17.7147 18.0196 17.0224 18.7491C16.3121 19.4978 15.9354 20.4799 15.9625 21.5111C15.9895 22.5419 16.4172 23.5017 17.1653 24.2112L17.3377 24.03L17.1769 24.2219C17.3187 24.3409 17.6038 24.4839 17.9804 24.6451C18.3688 24.8114 18.8873 25.0096 19.5245 25.2329C20.7996 25.6798 22.5603 26.2315 24.7295 26.8372L24.9002 26.8849L25.0019 26.7394C25.3431 26.249 25.7312 25.787 26.1624 25.3617L26.3319 25.1949L26.1732 25.0172C23.2459 21.738 21.0439 19.2107 20.0299 17.6567L19.9554 17.5429L19.8204 17.5431L19.6229 17.5481ZM32.6698 11.334C31.6001 11.4126 30.6347 11.918 29.9646 12.7359L29.879 12.8402L29.9199 12.9699C30.5051 14.8096 31.1019 18.294 31.7516 22.3834L31.789 22.6174L32.025 22.5932C32.6192 22.531 33.2137 22.5236 33.8012 22.5695L33.9783 22.5828L34.0494 22.4205C34.9544 20.3578 35.6422 18.6452 36.1038 17.374C36.3344 16.7387 36.5103 16.2114 36.6274 15.8041C36.7411 15.4089 36.8095 15.0957 36.8071 14.9085L36.5572 14.9124L36.8065 14.8936C36.7317 13.8745 36.2593 12.9359 35.4786 12.2625C34.6976 11.5886 33.6991 11.2583 32.6698 11.334ZM22.9562 11.0547C21.03 11.9677 20.2046 14.2764 21.1169 16.2014C21.2781 16.5416 21.6036 17.0201 22.0261 17.5796C22.4522 18.144 22.9895 18.8058 23.5866 19.5158C24.7811 20.936 26.2224 22.5589 27.5095 23.9992L27.6499 24.1564L27.8288 24.0435C28.1536 23.8398 28.4935 23.6529 28.8479 23.4849C29.21 23.3134 29.5776 23.1662 29.9489 23.0421L30.1495 22.9751L30.1172 22.7656C29.8418 21.0261 29.4969 18.8954 29.1443 17.0366C28.9681 16.1075 28.7892 15.2438 28.6154 14.5294C28.443 13.821 28.2713 13.2401 28.1053 12.8897C27.1929 10.9645 24.8829 10.1416 22.9562 11.0547Z" fill="black" stroke="#F5FAFF" stroke-width="0.5"/>
<path d="M28.1551 33.6946L31.6321 32.0469C32.0501 31.8488 32.55 32.0272 32.7481 32.4452C32.946 32.8632 32.7673 33.3623 32.3493 33.5604L28.8723 35.2081C28.4543 35.4061 27.9549 35.2285 27.7567 34.8106C27.5586 34.3926 27.737 33.8927 28.1551 33.6946Z" fill="black" stroke="#F5FAFF" stroke-width="0.5"/>
<path d="M34.6741 39.3944L40.2382 36.7577C40.6563 36.5596 41.1561 36.738 41.3542 37.156C41.5521 37.574 41.3734 38.0731 40.9554 38.2711L35.3914 40.9079C34.9734 41.106 34.474 40.9283 34.2758 40.5104C34.09 40.1185 34.2348 39.6544 34.5981 39.4348L34.6741 39.3944Z" fill="black" stroke="#F5FAFF" stroke-width="0.5"/>
</svg>
